<?xml version="1.0" encoding="UTF-8"?>
<svg width="1200" height="630" viewBox="0 0 1200 630" xmlns="http://www.w3.org/2000/svg" aria-label="Wien ÖPNV Feed – Social Preview mit eingebautem Wappen">
  <!-- Hintergrund -->
  <rect width="1200" height="630" fill="#0F1736"/>

  <!-- Titel -->
  <text x="64" y="128"
        font-family="system-ui,-apple-system,Segoe UI,Roboto,Helvetica,Arial"
        font-weight="800" font-size="88" fill="#FFFFFF">Wien ÖPNV Feed</text>

  <!-- Untertitel -->
  <text x="64" y="184"
        font-family="system-ui,-apple-system,Segoe UI,Roboto,Helvetica,Arial"
        font-weight="500" font-size="36" fill="#CFE0FF">Störungen · Baustellen · Hinweise · RSS &amp; JSON</text>

  <!-- Wappen-Panel (rechts oben) -->
  <g transform="translate(988,48)">
    <rect width="148" height="176" rx="18" fill="#111C44" stroke="#2A3873"/>
    <!-- Dein Wappen: skaliert (0.6) und zentriert: (14,10) bei Panel 148×176 -->
    <g transform="translate(14,10) scale(0.6)" fill="none" stroke="#000" stroke-width="2">
      <clipPath id="c">
        <path d="M199,1L1,1c0,0 1,69 5,106c4,36 18,79 35,106c13,23 36,45
        59,46c23,0 46-24 59-46c17-28 31-71 35-106c4-37 5-105 5-106"/>
      </clipPath>
      <g clip-path="url(#c)">
        <rect fill="#DA121A" width="200" height="260"/>
        <path stroke="#FFF" stroke-width="43" d="m100,0v260M0,99h200"/>
        <path d="m77.5,1v75.5H0m0,45h77.5v260m45
        0V121.5H200m0-45H122.5V0M84.5,0v83.5H0m0,31H84.5v260m31,0V114.5H200m0-31H115.5V0"/>
      </g>
      <path d="M199,1L1,1c0,0 1.2,68.6 5,106c4.2,36
      18.2,79 35,106c13.4,22.7 36,45 59,46c23,0 45.6-24.2
      59-46c16.7-27.9 30.7-71 35-106c4.2-37.2 5.3-105 5-106z"/>
    </g>
  </g>

  <!-- Badges (20 px tiefer: y=260) -->
  <!-- WL -->
  <g transform="translate(64,260)">
    <rect width="260" height="60" rx="18" fill="#E2002A"/>
    <g transform="translate(16,12)">
      <rect x="0" y="8" width="46" height="28" rx="6" fill="#FFFFFF"/>
      <rect x="6" y="14" width="34" height="10" rx="3" fill="#0F1736"/>
      <rect x="9" y="28" width="10" height="6" rx="2" fill="#0F1736"/>
      <rect x="29" y="28" width="10" height="6" rx="2" fill="#0F1736"/>
      <rect x="10" y="6" width="26" height="4" rx="2" fill="#FFFFFF"/>
    </g>
    <text x="80" y="39"
          font-family="system-ui,-apple-system,Segoe UI,Roboto,Helvetica,Arial"
          font-weight="700" font-size="26" fill="#FFFFFF">Wiener Linien</text>
  </g>

  <!-- ÖBB -->
  <g transform="translate(340,260)">
    <rect width="220" height="60" rx="18" fill="#CC0000"/>
    <g transform="translate(16,10)">
      <rect x="0" y="6" width="48" height="36" rx="10" fill="#FFFFFF"/>
      <rect x="6" y="14" width="36" height="12" rx="3" fill="#0F1736"/>
      <rect x="10" y="30" width="10" height="8" rx="2" fill="#0F1736"/>
      <rect x="30" y="30" width="10" height="8" rx="2" fill="#0F1736"/>
      <path d="M6 42 L14 54" stroke="#FFFFFF" stroke-width="4" stroke-linecap="round"/>
      <path d="M42 42 L34 54" stroke="#FFFFFF" stroke-width="4" stroke-linecap="round"/>
    </g>
    <text x="80" y="39"
          font-family="system-ui,-apple-system,Segoe UI,Roboto,Helvetica,Arial"
          font-weight="700" font-size="26" fill="#FFFFFF">ÖBB</text>
  </g>

  <!-- VOR -->
  <g transform="translate(576,260)">
    <rect width="230" height="60" rx="18" fill="#7ABC1E"/>
    <g transform="translate(16,12)">
      <rect x="0" y="8" width="48" height="28" rx="6" fill="#FFFFFF"/>
      <rect x="6" y="14" width="30" height="8" rx="2" fill="#0F1736"/>
      <rect x="8" y="26" width="10" height="6" rx="2" fill="#0F1736"/>
      <rect x="28" y="26" width="10" height="6" rx="2" fill="#0F1736"/>
      <circle cx="14" cy="42" r="4.5" fill="#FFFFFF"/>
      <circle cx="34" cy="42" r="4.5" fill="#FFFFFF"/>
    </g>
    <text x="80" y="39"
          font-family="system-ui,-apple-system,Segoe UI,Roboto,Helvetica,Arial"
          font-weight="700" font-size="26" fill="#0F1736">VOR / VAO</text>
  </g>

  <!-- RSS -->
  <g transform="translate(822,260)">
    <rect width="210" height="60" rx="18" fill="#FFD95B"/>
    <g transform="translate(16,10)">
      <circle cx="12" cy="40" r="6" fill="#0F1A3A"/>
      <path d="M4 20a28 28 0 0 1 28 28" stroke="#0F1A3A" stroke-width="8" stroke-linecap="round" fill="none"/>
      <path d="M4 6a42 42 0 0 1 42 42" stroke="#0F1A3A" stroke-width="8" stroke-linecap="round" fill="none" opacity="0.9"/>
    </g>
    <text x="80" y="39"
          font-family="system-ui,-apple-system,Segoe UI,Roboto,Helvetica,Arial"
          font-weight="700" font-size="26" fill="#1B2456">RSS Feed</text>
  </g>

  <!-- Info-Leiste -->
  <g transform="translate(64,520)">
    <rect width="1072" height="70" rx="18" fill="#122354" stroke="#2A3873"/>
    <circle cx="42" cy="35" r="16" fill="#4CA9FF"/>
    <path d="M40 27h4v16h-4zM32 35h16v4H32z" fill="#0F1736"/>
    <text x="72" y="43"
          font-family="system-ui,-apple-system,Segoe UI,Roboto,Helvetica,Arial"
          font-weight="600" font-size="24" fill="#EAF2FF">Konsolidierter Feed • Dedupliziert • Reproduzierbare Builds • Validierte Stationsdaten</text>
  </g>
</svg>
