<?xml version="1.0" encoding="UTF-8"?>
<svg width="1200" height="630" viewBox="0 0 1200 630" xmlns="http://www.w3.org/2000/svg" aria-label="Wien ÖPNV Feed – Social Preview">
  <!-- Hintergrund -->
  <rect width="1200" height="630" fill="#0F1736"/>

  <!-- Titel -->
  <text x="72" y="140"
        font-family="system-ui,-apple-system,Segoe UI,Roboto,Helvetica,Arial"
        font-weight="800" font-size="84" fill="#FFFFFF">Wien ÖPNV Feed</text>

  <!-- Untertitel -->
  <text x="72" y="188"
        font-family="system-ui,-apple-system,Segoe UI,Roboto,Helvetica,Arial"
        font-weight="500" font-size="36" fill="#DDE6FF">Störungen · Baustellen · Hinweise · RSS &amp; JSON</text>

  <!-- Chip: WL -->
  <g transform="translate(72,240)">
    <rect width="260" height="56" rx="16" fill="#E2002A"/>
    <!-- Tram-Icon -->
    <g transform="translate(14,10)">
      <rect x="0" y="6" width="46" height="28" rx="6" fill="#FFFFFF"/>
      <rect x="6" y="12" width="34" height="10" rx="3" fill="#0F1736"/>
      <rect x="9" y="26" width="10" height="6" rx="2" fill="#0F1736"/>
      <rect x="29" y="26" width="10" height="6" rx="2" fill="#0F1736"/>
      <rect x="10" y="4" width="26" height="4" rx="2" fill="#FFFFFF"/>
    </g>
    <text x="76" y="37"
          font-family="system-ui,-apple-system,Segoe UI,Roboto,Helvetica,Arial"
          font-weight="700" font-size="26" fill="#FFFFFF">Wiener Linien</text>
  </g>

  <!-- Chip: ÖBB -->
  <g transform="translate(352,240)">
    <rect width="220" height="56" rx="16" fill="#CC0000"/>
    <!-- Zug-Icon -->
    <g transform="translate(14,8)">
      <rect x="0" y="4" width="48" height="36" rx="10" fill="#FFFFFF"/>
      <rect x="6" y="12" width="36" height="12" rx="3" fill="#0F1736"/>
      <rect x="10" y="28" width="10" height="8" rx="2" fill="#0F1736"/>
      <rect x="30" y="28" width="10" height="8" rx="2" fill="#0F1736"/>
      <path d="M6 40 L14 52" stroke="#FFFFFF" stroke-width="4" stroke-linecap="round"/>
      <path d="M42 40 L34 52" stroke="#FFFFFF" stroke-width="4" stroke-linecap="round"/>
    </g>
    <text x="72" y="37"
          font-family="system-ui,-apple-system,Segoe UI,Roboto,Helvetica,Arial"
          font-weight="700" font-size="26" fill="#FFFFFF">ÖBB</text>
  </g>

  <!-- Chip: VOR -->
  <g transform="translate(592,240)">
    <rect width="230" height="56" rx="16" fill="#7ABC1E"/>
    <!-- Bus-Icon -->
    <g transform="translate(14,10)">
      <rect x="0" y="6" width="48" height="28" rx="6" fill="#FFFFFF"/>
      <rect x="6" y="12" width="30" height="8" rx="2" fill="#0F1736"/>
      <rect x="8" y="24" width="10" height="6" rx="2" fill="#0F1736"/>
      <rect x="28" y="24" width="10" height="6" rx="2" fill="#0F1736"/>
      <circle cx="14" cy="40" r="4.5" fill="#FFFFFF"/>
      <circle cx="34" cy="40" r="4.5" fill="#FFFFFF"/>
    </g>
    <text x="72" y="37"
          font-family="system-ui,-apple-system,Segoe UI,Roboto,Helvetica,Arial"
          font-weight="700" font-size="26" fill="#0F1736">VOR / VAO</text>
  </g>

  <!-- Chip: RSS -->
  <g transform="translate(842,240)">
    <rect width="200" height="56" rx="16" fill="#FFD95B"/>
    <!-- RSS-Icon -->
    <g transform="translate(14,8)">
      <circle cx="12" cy="38" r="6" fill="#0F1A3A"/>
      <path d="M4 18a28 28 0 0 1 28 28" stroke="#0F1A3A" stroke-width="8" stroke-linecap="round" fill="none"/>
      <path d="M4 4a42 42 0 0 1 42 42" stroke="#0F1A3A" stroke-width="8" stroke-linecap="round" fill="none" opacity="0.9"/>
    </g>
    <text x="70" y="37"
          font-family="system-ui,-apple-system,Segoe UI,Roboto,Helvetica,Arial"
          font-weight="700" font-size="26" fill="#1B2456">RSS Feed</text>
  </g>

  <!-- Info-Leiste -->
  <g transform="translate(72,520)">
    <rect width="1056" height="70" rx="16" fill="#111C44" stroke="#2A3873"/>
    <circle cx="38" cy="35" r="16" fill="#4CA9FF"/>
    <path d="M36 27h4v16h-4zM28 35h16v4H28z" fill="#0F1736"/>
    <text x="66" y="43"
          font-family="system-ui,-apple-system,Segoe UI,Roboto,Helvetica,Arial"
          font-weight="600" font-size="24" fill="#EAF2FF">Konsolidierter Feed • Dedupliziert • Reproduzierbare Builds • Validierte Stationsdaten</text>
  </g>
</svg>
