<?xml version="1.0" encoding="UTF-8"?>
<svg width="1200" height="630" viewBox="0 0 1200 630" xmlns="http://www.w3.org/2000/svg" aria-label="Wien ÖPNV Feed – Social Preview">
  <rect width="1200" height="630" fill="#0F1736"/>

  <text x="64" y="128"
        font-family="system-ui,-apple-system,Segoe UI,Roboto,Helvetica,Arial"
        font-weight="800" font-size="88" fill="#FFFFFF">Wien ÖPNV Feed</text>

  <text x="64" y="184"
        font-family="system-ui,-apple-system,Segoe UI,Roboto,Helvetica,Arial"
        font-weight="500" font-size="36" fill="#CFE0FF">Störungen · Baustellen · Hinweise · RSS &amp; JSON</text>

  <g transform="translate(988,48)">
    <rect width="148" height="176" rx="18" fill="#111C44" stroke="#2A3873"/>
    <g transform="translate(11,9)">
      <path d="M10 4 H116 V70 C116 110 95 138 63 154 C31 138 10 110 10 70 V4 Z"
            fill="#E0182D" stroke="#000000" stroke-width="3"/>
      <rect x="55" y="8" width="16" height="142" fill="#FFFFFF" stroke="#000000" stroke-width="2"/>
      <rect x="14" y="60" width="98" height="16" fill="#FFFFFF" stroke="#000000" stroke-width="2"/>
      <path d="M14 8 H112 V70 C112 108 93 134 63 149 C33 134 14 108 14 70 V8 Z"
            fill="none" stroke="#000000" stroke-width="2"/>
    </g>
  </g>

  <g transform="translate(64,260)">
    <rect width="260" height="60" rx="18" fill="#E2002A"/>
    <g transform="translate(16,12)">
      <rect x="0" y="8" width="46" height="28" rx="6" fill="#FFFFFF"/>
      <rect x="6" y="14" width="34" height="10" rx="3" fill="#0F1736"/>
      <rect x="9" y="28" width="10" height="6" rx="2" fill="#0F1736"/>
      <rect x="29" y="28" width="10" height="6" rx="2" fill="#0F1736"/>
      <rect x="10" y="6" width="26" height="4" rx="2" fill="#FFFFFF"/>
    </g>
    <text x="80" y="39"
          font-family="system-ui,-apple-system,Segoe UI,Roboto,Helvetica,Arial"
          font-weight="700" font-size="26" fill="#FFFFFF">Wiener Linien</text>
  </g>

  <g transform="translate(340,260)">
    <rect width="220" height="60" rx="18" fill="#CC0000"/>
    <g transform="translate(16,10)">
      <rect x="0" y="6" width="48" height="36" rx="10" fill="#FFFFFF"/>
      <rect x="6" y="14" width="36" height="12" rx="3" fill="#0F1736"/>
      <rect x="10" y="30" width="10" height="8" rx="2" fill="#0F1736"/>
      <rect x="30" y="30" width="10" height="8" rx="2" fill="#0F1736"/>
      <path d="M6 42 L14 54" stroke="#FFFFFF" stroke-width="4" stroke-linecap="round"/>
      <path d="M42 42 L34 54" stroke="#FFFFFF" stroke-width="4" stroke-linecap="round"/>
    </g>
    <text x="80" y="39"
          font-family="system-ui,-apple-system,Segoe UI,Roboto,Helvetica,Arial"
          font-weight="700" font-size="26" fill="#FFFFFF">ÖBB</text>
  </g>

  <g transform="translate(576,260)">
    <rect width="230" height="60" rx="18" fill="#7ABC1E"/>
    <g transform="translate(16,12)">
      <rect x="0" y="8" width="48" height="28" rx="6" fill="#FFFFFF"/>
      <rect x="6" y="14" width="30" height="8" rx="2" fill="#0F1736"/>
      <rect x="8" y="26" width="10" height="6" rx="2" fill="#0F1736"/>
      <rect x="28" y="26" width="10" height="6" rx="2" fill="#0F1736"/>
      <circle cx="14" cy="42" r="4.5" fill="#FFFFFF"/>
      <circle cx="34" cy="42" r="4.5" fill="#FFFFFF"/>
    </g>
    <text x="80" y="39"
          font-family="system-ui,-apple-system,Segoe UI,Roboto,Helvetica,Arial"
          font-weight="700" font-size="26" fill="#0F1736">VOR / VAO</text>
  </g>

  <g transform="translate(822,260)">
    <rect width="250" height="60" rx="18" fill="#FFD95B"/>
    <g transform="translate(18, 12)">
      <text x="24" y="44"
            font-family="monospace, system-ui"
            font-weight="900" font-size="40" fill="#1B2456"
            text-anchor="middle">{ }</text>
    </g>
    <text x="84" y="39"
          font-family="system-ui,-apple-system,Segoe UI,Roboto,Helvetica,Arial"
          font-weight="700" font-size="26" fill="#1B2456">RSS &amp; JSON</text>
  </g>

  <g transform="translate(64,520)">
    <rect width="1072" height="70" rx="18" fill="#122354" stroke="#2A3873"/>
    <circle cx="42" cy="35" r="16" fill="#FFFFFF"/>
    <g transform="translate(34, 27)">
      <path d="M8 0C3.58 0 0 3.58 0 8c0 3.54 2.29 6.53 5.47 7.59.4.07.55-.17.55-.38 0-.19-.01-.82-.01-1.49-2.01.37-2.53-.49-2.69-.94-.09-.23-.48-.94-.82-1.13-.28-.15-.68-.52-.01-.53.63-.01 1.08.58 1.23.82.72 1.21 1.87.87 2.33.66.07-.52.28-.87.51-1.07-1.78-.2-3.64-.89-3.64-3.95 0-.87.31-1.59.82-2.15-.08-.2-.36-1.02.08-2.12 0 0 .67-.21 2.2.82.64-.18 1.32-.27 2-.27.68 0 1.36.09 2 .27 1.53-1.04 2.2-.82 2.2-.82.44 1.1.16 1.92.08 2.12.51.56.82 1.27.82 2.15 0 3.07-1.87 3.75-3.65 3.95.29.25.54.73.54 1.48 0 1.07-.01 1.93-.01 2.2 0 .21.15.46.55.38A8.013 8.013 0 0 0 16 8c0-4.42-3.58-8-8-8z" fill="#0F1736"/>
    </g>
    <text x="72" y="43"
          font-family="system-ui,-apple-system,Segoe UI,Roboto,Helvetica,Arial"
          font-weight="600" font-size="24" fill="#EAF2FF">github.com/Origamihase/wien-oepnv</text>
  </g>
</svg>
