<svg width="1200" height="630" viewBox="0 0 1200 630" fill="none" xmlns="http://www.w3.org/2000/svg">
  <defs>
    <linearGradient id="buttonGradient" x1="0%" y1="0%" x2="0%" y2="100%">
      <stop offset="0%" style="stop-color:#FFD95B;" />
      <stop offset="100%" style="stop-color:#FFCC33;" />
    </linearGradient>
    
    <style>
      .title {
        font-family: -apple-system, BlinkMacSystemFont, "Segoe UI", Roboto, Helvetica, Arial, sans-serif, "Apple Color Emoji", "Segoe UI Emoji";
        font-size: 80px;
        font-weight: 700;
        fill: #FFFFFF;
      }
      .subtitle {
        font-family: -apple-system, BlinkMacSystemFont, "Segoe UI", Roboto, Helvetica, Arial, sans-serif, "Apple Color Emoji", "Segoe UI Emoji";
        font-size: 38px;
        font-weight: 400;
        fill: #FFFFFF;
        fill-opacity: 0.9;
      }
      .button-text {
        font-family: -apple-system, BlinkMacSystemFont, "Segoe UI", Roboto, Helvetica, Arial, sans-serif, "Apple Color Emoji", "Segoe UI Emoji";
        font-size: 32px;
        font-weight: 600;
        fill: #1E266A; /* Dunkler Blauton für Kontrast auf Gelb */
        text-anchor: middle;
        dominant-baseline: central;
      }
    </style>
  </defs>
  
  <rect width="1200" height="630" fill="#2A3695"/>
  
  <text x="60" y="130" class="title">Wien ÖPNV Feed</text>
  <text x="60" y="195" class="subtitle">Aktuelle Verkehrsmeldungen &amp; API-Daten</text>
  
  <g transform="translate(60, 270)">
    <rect width="300" height="90" rx="45" fill="url(#buttonGradient)"/>
    <text x="150" y="45" class="button-text">RSS &amp; JSON</text>
    
    <rect x="320" width="300" height="90" rx="45" fill="url(#buttonGradient)"/>
    <text x="470" y="45" class="button-text">Open Data</text>
    
    <rect x="640" width="300" height="90" rx="45" fill="url(#buttonGradient)"/>
    <text x="790" y="45" class="button-text">ÖPNV Wien</text>
  </g>
  
  <g transform="translate(0, 430)" fill="#FFFFFF" fill-opacity="0.85">
    
    <g transform="translate(240, 0) scale(1.4)">
      <path d="M70,10H30C19,10,10,19,10,30v40c0,11,9,20,20,20h40c11,0,20-9,20-20V30C90,19,81,10,70,10z M70,80H30V30h40V80z"/>
      <path d="M45,40h-5c-3.3,0-6,2.7-6,6v18c0,3.3,2.7,6,6,6h5c3.3,0,6-2.7,6-6V46C51,42.7,48.3,40,45,40z"/>
      <path d="M60,40h-5c-3.3,0-6,2.7-6,6v18c0,3.3,2.7,6,6,6h5c3.3,0,6-2.7,6-6V46C66,42.7,63.3,40,60,40z"/>
    </g>
    
    <g transform="translate(410, 0) scale(1.4)">
      <path d="M78.1,20H21.9C15.4,20,10,25.4,10,31.9v26.1c0,3.8,1.7,7.3,4.5,9.7V80c0,5.5,4.5,10,10,10h10c5.5,0,10-4.5,10-10v-5h21v5c0,5.5,4.5,10,10,10h10c5.5,0,10-4.5,10-10v-12.3c2.8-2.4,4.5-5.9,4.5-9.7V31.9C90,25.4,84.6,20,78.1,20z M30,70H25v-5h5V70z M75,70h-5v-5h5V70z M80,55H20V35h60V55z"/>
    </g>
    
    <g transform="translate(580, 0) scale(1.4)">
      <path d="M80,25H20c-5.5,0-10,4.5-10,10v40c0,5.5,4.5,10,10,10h60c5.5,0,10-4.5,10-10V35C90,29.5,85.5,25,80,25z M40,75H25V60h15V75z M60,75H45V60h15V75z M80,75H65V60h15L80,75L80,75z M80,55H20V40h60V55z"/>
      <path d="M47.5,10h5c1.1,0,2,0.9,2,2v8c0,1.1-0.9,2-2,2h-5c-1.1,0-2-0.9-2-2v-8C45.5,10.9,46.4,10,47.5,10z"/>
      <path d="M30,22h40v-5H30V22z"/>
    </g>
    
    <g transform="translate(750, 0) scale(1.4)">
      <path d="M80,20H20c-5.5,0-10,4.5-10,10v40c0,5.5,4.5,10,10,10h5v5c0,2.8,2.2,5,5,5h5c2.8,0,5-2.2,5-5v-5h20v5c0,2.8,2.2,5,5,5h5c2.8,0,5-2.2,5-5v-5h5c5.5,0,10-4.5,10-10V30C90,24.5,85.5,20,80,20z M30,70c-2.8,0-5-2.2-5-5s2.2-5,5-5s5,2.2,5,5S32.8,70,30,70z M70,70c-2.8,0-5-2.2-5-5s2.2-5,5-5s5,2.2,5,5S72.8,70,70,70z M80,55H20V30h60V55z"/>
    </g>
  </g>
</svg>
