<svg width="1200" height="630" viewBox="0 0 1200 630" fill="none" xmlns="http://www.w3.org/2000/svg">
  <defs>
    <style>
      .title {
        font-family: -apple-system, BlinkMacSystemFont, "Segoe UI", Roboto, Helvetica, Arial, sans-serif, "Apple Color Emoji", "Segoe UI Emoji";
        font-size: 80px;
        font-weight: 700;
        fill: #FFFFFF;
      }
      .subtitle {
        font-family: -apple-system, BlinkMacSystemFont, "Segoe UI", Roboto, Helvetica, Arial, sans-serif, "Apple Color Emoji", "Segoe UI Emoji";
        font-size: 38px;
        font-weight: 400;
        fill: #FFFFFF;
        fill-opacity: 0.9;
      }
      .button-text {
        font-family: -apple-system, BlinkMacSystemFont, "Segoe UI", Roboto, Helvetica, Arial, sans-serif, "Apple Color Emoji", "Segoe UI Emoji";
        font-size: 32px;
        font-weight: 600;
        fill: #1E266A; /* Dunkler Blauton für Kontrast auf Gelb */
        text-anchor: middle;
        dominant-baseline: central;
      }
      .line {
        stroke: #FFD95B; /* Gelb */
        stroke-width: 6;
        stroke-linecap: round;
        stroke-linejoin: round;
        opacity: 0.6;
      }
      .dot {
        fill: #FFD95B; /* Gelb */
        opacity: 0.8;
      }
    </style>
  </defs>
  
  <rect width="1200" height="630" fill="#2A3695"/>
  
  <text x="60" y="130" class="title">Wien ÖPNV Feed</text>
  <text x="60" y="195" class="subtitle">Aktuelle Verkehrsmeldungen &amp; API-Daten</text>
  
  <g transform="translate(60, 270)">
    <rect width="300" height="90" rx="45" fill="#FFD95B"/>
    <text x="150" y="45" class="button-text">RSS &amp; JSON</text>
    
    <rect x="320" width="300" height="90" rx="45" fill="#FFD95B"/>
    <text x="470" y="45" class="button-text">Open Data</text>
    
    <rect x="640" width="300" height="90" rx="45" fill="#FFD95B"/>
    <text x="790" y="45" class="button-text">ÖPNV Wien</text>
  </g>

  <g transform="translate(0, 420)">
    <path class="line" d="M 80 120 Q 180 80, 280 120 T 480 120 Q 580 80, 680 120 T 880 120 Q 980 80, 1080 120"/>
    <path class="line" d="M 60 150 C 160 130, 260 170, 360 150 S 560 130, 660 170 S 860 130, 960 150 C 1060 170, 1160 130, 1140 150"/>
    
    <circle class="dot" cx="80" cy="120" r="8"/>
    <circle class="dot" cx="280" cy="120" r="8"/>
    <circle class="dot" cx="480" cy="120" r="8"/>
    <circle class="dot" cx="680" cy="120" r="8"/>
    <circle class="dot" cx="880" cy="120" r="8"/>
    <circle class="dot" cx="1080" cy="120" r="8"/>

    <circle class="dot" cx="60" cy="150" r="8"/>
    <circle class="dot" cx="260" cy="160" r="8"/>
    <circle class="dot" cx="460" cy="140" r="8"/>
    <circle class="dot" cx="660" cy="160" r="8"/>
    <circle class="dot" cx="860" cy="140" r="8"/>
    <circle class="dot" cx="1140" cy="150" r="8"/>
  </g>

  <g transform="translate(970, 60) scale(1.1)">
    <path d="M136.08,0.36C136.08,0.36,104.76,3.6,104.76,3.6L104.76,68.76L104.76,133.92C104.76,133.92,104.76,161.64,104.76,189.36C104.76,189.36,101.52,189.36,98.28,189.36C98.28,189.36,71.28,189.36,44.28,189.36C44.28,189.36,41.04,189.36,37.8,189.36C37.8,189.36,37.8,161.64,37.8,133.92L37.8,68.76L37.8,3.6C37.8,3.6,6.48,0.36,6.48,0.36L71.64,0.36L136.08,0.36Z" fill="#FFFFFF"/>
    <path d="M142.56,0C142.56,0,71.64,0,0,0C0,0,0,94.68,0,189.36C0,189.36,31.32,192.6,31.32,192.6C31.32,192.6,31.32,208.8,31.32,225C31.32,225,49.32,238.32,67.32,251.64C67.32,251.64,71.64,254.88,76.68,254.88C81,254.88,85.32,251.64,85.32,251.64C103.32,238.32,121.32,225,121.32,225C121.32,225,121.32,208.8,121.32,192.6C121.32,192.6,152.64,189.36,152.64,189.36C152.64,189.36,152.64,94.68,152.64,0L142.56,0Z" fill="#C60C30"/>
    <path d="M104.76,3.6V68.76V133.92C104.76,161.64,104.76,189.36,98.28,189.36H71.28H44.28C37.8,189.36,37.8,161.64,37.8,133.92V68.76V3.6C6.48,0.36,71.64,0.36,136.08,0.36C136.08,0.36,104.76,3.6,104.76,3.6Z" fill="#FFFFFF"/>
    <path d="M37.8,133.92V68.76M104.76,133.92V68.76M71.28,189.36H44.28M71.28,189.36H98.28M71.28,3.6H136.08C136.08,0.36,71.64,0.36,6.48,0.36H71.28M37.8,189.36C37.8,161.64,37.8,133.92,37.8,133.92M104.76,189.36C104.76,161.64,104.76,133.92,104.76,133.92M37.8,3.6C37.8,3.6,37.8,68.76,37.8,68.76M104.76,3.6C104.76,3.6,104.76,68.76,104.76,68.76M0,0V189.36C31.32,192.6,31.32,225,67.32,251.64C71.64,254.88,81,254.88,85.32,251.64C121.32,225,121.32,192.6,152.64,189.36V0H0Z" stroke="#000000" stroke-width="3"/>
  </g>
</svg>
